<svg width="200" height="200" viewBox="0 0 200 200" fill="none" xmlns="http://www.w3.org/2000/svg">
  <path d="M100 40C67.1573 40 40 67.1573 40 100C40 132.843 67.1573 160 100 160C132.843 160 160 132.843 160 100C160 67.1573 132.843 40 100 40Z" fill="white"/>
  <path d="M72 100C72 84.536 84.536 72 100 72V128C84.536 128 72 115.464 72 100Z" fill="#FF5BAC"/>
  <path d="M100 72C115.464 72 128 84.536 128 100C128 115.464 115.464 128 100 128V72Z" fill="#FFD166"/>
  <path d="M100 72V56C77.9086 56 60 73.9086 60 96H76C76 82.7452 86.7452 72 100 72Z" fill="#06D6A0"/>
  <path d="M100 72V56C122.091 56 140 73.9086 140 96H124C124 82.7452 113.255 72 100 72Z" fill="#118AB2"/>
</svg>